<?xml version="1.0" encoding="UTF-8"?>
<svg version="1.1" viewBox="0 0 1024 1024" width="1280" height="1280" xmlns="http://www.w3.org/2000/svg">
<path transform="translate(474)" d="m0 0h76l49 7 31 6 30 8 35 12 24 10 25 12 23 12 21 13 12 8 17 12 14 11 13 11 11 9 11 11 2 1v2l4 2 4 4v2h2v2h2l7 8 13 14 9 11 12 15 12 17 10 15 11 18 9 16 9 17 11 24 11 28 10 31 6 22 7 36 5 34 2 16v67l-6 47-6 32-6 25-9 29-10 27-11 25-8 16-11 21-12 20-15 22-14 19-11 13-9 11-16 17-21 21-8 7-14 12-14 11-15 11-24 16-24 14-27 14-29 13-30 11-30 9-36 8-44 7-17 2h-69l-30-4-32-5-36-8-30-9-25-9-30-13-16-8-21-11-20-12-12-8-17-12-18-14-13-11-12-11-8-7-23-23-7-8-9-10-11-14-15-20-14-21-12-20-10-18-15-31-14-36-10-32-7-29-4-21-5-33-2-18v-76l7-48 7-34 10-35 9-26 10-24 14-29 13-24 14-22 11-16 9-12 10-13 9-10 9-11 7-7 1-2h2l2-4 12-12h2l1-3 8-7 11-10 11-9 15-12 17-12 15-10 18-11 22-12 16-8 24-11 27-10 28-9 28-7 36-7z" fill="#F45072"/>
<path transform="translate(198,236)" d="m0 0h122l6 5 6 15 11 40 213 1h231l16 4 12 6 9 7 8 9 6 12 2 8v9l-4 17-45 153-21 71-5 13-4 5-5 2-401 1-10 5-5 6-2 7v10l4 10 8 7 5 2 18 1h371l7 3 4 5 1 3v7l-4 8-4 3-4 1-18 1-9-1 5 11 3 12v19l-5 16-6 11-6 8-11 9-15 7-11 3h-18l-15-4-11-6-10-9-7-9-7-14-3-10-1-16 3-15 5-12-130-1 6 14 2 10v17l-4 15-7 13-6 8-8 7-12 7-12 4-5 1h-17l-16-4-11-6-10-9-7-8-8-16-3-12v-19l5-16 3-6h-14l-15-4-11-7-11-11-7-14-3-11v-14l2-10 4-10 9-12 8-7 14-7 8-2 13-1-6-31-20-101-20-100-12-61-4-20v-3h-106l-6-3-5-7v-10l3-6 5-3z" fill="#FEFEFE"/>
<path transform="translate(553,419)" d="m0 0h93l1 1v71l-11 1h-102l-25-1-1-1v-70z" fill="#F45072"/>
<path transform="translate(508,328)" d="m0 0h139v61h-138l-1-1z" fill="#F45072"/>
<path transform="translate(509,522)" d="m0 0h138v61h-128l-11-1v-59z" fill="#F45072"/>
<path transform="translate(717,327)" d="m0 0h60l13 2 11 6 7 8 1 8-8 27-4 10-1 1h-117l-1-1v-60z" fill="#F45072"/>
<path transform="translate(414,419)" d="m0 0h62l1 1v71l-3 1h-93l-3-9-10-51-2-12z" fill="#F45072"/>
<path transform="translate(399,327)" d="m0 0h77l1 1v60l-1 1h-115l-4-18-8-43z" fill="#F45072"/>
<path transform="translate(715,419)" d="m0 0h73l-1 9-7 23-12 40-2 1h-71l-16-1-1-1v-70z" fill="#F45072"/>
<path transform="translate(386,522)" d="m0 0h91v60l-4 1h-73l-3-1-3-12-9-47z" fill="#F45072"/>
<path transform="translate(678,522)" d="m0 0h81l-4 16-12 39-2 5-20 1h-36l-7-1z" fill="#F45072"/>
<path transform="translate(421,692)" d="m0 0 9 1 10 4 8 7 5 10 2 8-1 11-5 10-7 8-8 5-9 2-11-1-9-4-9-8-6-12-1-4v-10l4-11 6-7 9-6 6-2z" fill="#F45072"/>
<path transform="translate(661,692)" d="m0 0 9 1 10 4 8 7 5 8 2 7v13l-5 10-8 9-12 6-12 1-10-3-9-7-7-10-2-6v-15l4-10 5-6 9-6 5-2z" fill="#F45072"/>
</svg>
